<svg width="385" height="370" viewBox="0 0 385 370" fill="none" xmlns="http://www.w3.org/2000/svg">
<path d="M62.75 107.5C62.75 74.3629 89.6129 47.5 122.75 47.5H223.75H290.215C297.717 47.5 303.566 41.0025 302.781 33.5424C301.558 21.9276 315.397 15.014 323.95 22.9667L372.754 68.3454C380.404 75.4589 384.75 85.4345 384.75 95.8811V309.5C384.75 342.637 357.887 369.5 324.75 369.5H109.271C93.2587 369.5 77.9105 363.1 66.6422 351.723L33.43 318.191C32.6468 317.401 31.9714 316.51 31.4215 315.542L27.9377 309.412C21.862 298.72 34.9088 287.44 44.6103 294.996L46.8728 296.759C53.3315 301.789 62.75 297.187 62.75 289V208.5V107.5Z" fill="#0057FF"/>
<rect x="17.75" y="9.5" width="322" height="322" rx="50" fill="#0057FF"/>
<path d="M163.614 255.795C150.363 255.727 138.589 252.191 128.29 245.188C118.061 238.185 110.028 228.505 104.192 216.147C98.3567 203.789 95.4388 189.543 95.4388 173.409C95.4388 157.344 98.494 143.235 104.604 131.083C110.715 118.931 118.953 109.422 129.32 102.557C139.756 95.6913 151.427 92.2585 164.334 92.2585C172.848 92.2585 180.571 93.7689 187.506 96.7898C194.508 99.8106 200.55 104.102 205.631 109.663C210.78 115.224 214.83 121.78 217.783 129.332H230.964L241.778 172.997L261.138 252.5H227.36L209.235 172.997C208.205 167.779 206.763 162.493 204.91 157.138C203.056 151.714 200.619 146.737 197.598 142.205C194.646 137.674 191.007 134.035 186.682 131.289C182.356 128.543 177.276 127.17 171.44 127.17C164.506 127.17 158.533 129.161 153.521 133.143C148.509 137.056 144.665 142.446 141.987 149.311C139.31 156.177 137.971 164.106 137.971 173.1C137.971 182.163 139.31 190.23 141.987 197.301C144.733 204.373 148.509 209.968 153.315 214.087C158.121 218.138 163.717 220.163 170.101 220.163C175.594 220.163 180.537 218.722 184.931 215.838C189.325 212.886 193.135 209.076 196.362 204.407C199.658 199.738 202.369 194.727 204.498 189.371C206.695 183.948 208.274 178.764 209.235 173.821L225.815 94.3182H259.079L241.778 173.821L230.964 216.456H218.298C215.414 223.939 211.535 230.668 206.66 236.641C201.786 242.545 195.779 247.214 188.638 250.646C181.498 254.079 173.157 255.795 163.614 255.795Z" fill="white"/>
</svg>
